<?xml version="1.0" encoding="UTF-8"?>
<svg width="107px" height="105px" viewBox="0 0 107 105" version="1.1" xmlns="http://www.w3.org/2000/svg" xmlns:xlink="http://www.w3.org/1999/xlink">
    <!-- Generator: sketchtool 62 (101010) - https://sketch.com -->
    <title>2B1EFA22-721A-44AF-8464-AE78274E8A98</title>
    <desc>Created with sketchtool.</desc>
    <g id="Page-1" stroke="none" stroke-width="1" fill="none" fill-rule="evenodd">
        <g id="Mobile" transform="translate(-147.000000, -3058.000000)">
            <g id="Group-17" transform="translate(85.000000, 3060.000000)">
                <g id="Group-5" transform="translate(64.000000, 0.000000)">
                    <g id="Group-16">
                        <g id="Group-13-Copy">
                            <rect id="Rectangle" stroke="#171717" stroke-width="4" x="19.2539062" y="0" width="60" height="101" rx="6"></rect>
                            <line x1="0" y1="101" x2="102.988281" y2="101" id="Path-2" stroke="#171717" stroke-width="4" fill="#FFFFFF" stroke-linecap="round"></line>
                            <g id="Group-8" transform="translate(59.253906, 48.000000)" fill="#171717">
                                <circle id="Oval-Copy" cx="9.5" cy="3.5" r="3.5"></circle>
                                <rect id="Rectangle" x="0" y="2" width="11" height="3" rx="1.5"></rect>
                            </g>
                        </g>
                        <g id="Group-15" transform="translate(0.000000, 40.000000)">
                            <circle id="Oval" fill="#44B244" cx="21.5" cy="21.5" r="21.5"></circle>
                            <path d="M27.9743023,13.1701471 C28.6167124,12.2716021 29.8659032,12.0639636 30.7644482,12.7063737 C31.618066,13.3166632 31.8481406,14.4745724 31.3182277,15.3592276 L31.2282217,15.4965196 L20.7151007,30.2013222 C20.0368251,31.1500328 18.7045098,31.3120456 17.8203868,30.5851899 L17.7027061,30.4805541 L11.4340262,24.4595205 C10.6374007,23.6943659 10.6118884,22.428293 11.377043,21.6316674 C12.1019263,20.8769696 13.2763873,20.8143512 14.0753533,21.4604381 L14.2048961,21.5746842 L18.806,25.993 L27.9743023,13.1701471 Z" id="Path-5" fill="#FFFFFF" fill-rule="nonzero" transform="translate(21.210438, 21.685695) rotate(7.000000) translate(-21.210438, -21.685695) "></path>
                        </g>
                    </g>
                </g>
            </g>
        </g>
    </g>
</svg>