<?xml version="1.0" encoding="UTF-8"?>
<svg width="107px" height="116px" viewBox="0 0 107 116" version="1.1" xmlns="http://www.w3.org/2000/svg" xmlns:xlink="http://www.w3.org/1999/xlink">
    <!-- Generator: sketchtool 62 (101010) - https://sketch.com -->
    <title>2F2A9AD1-6FA6-4A4B-8243-EF6AEF74A603</title>
    <desc>Created with sketchtool.</desc>
    <g id="Page-1" stroke="none" stroke-width="1" fill="none" fill-rule="evenodd">
        <g id="Mobile" transform="translate(-147.000000, -2568.000000)">
            <g id="Group-18" transform="translate(85.000000, 2570.000000)">
                <g id="Group-13" transform="translate(64.000000, 0.000000)">
                    <rect id="Rectangle" stroke="#171717" stroke-width="4" x="19.2539062" y="0" width="60" height="101" rx="6"></rect>
                    <line x1="0" y1="101" x2="102.988281" y2="101" id="Path-2" stroke="#171717" stroke-width="4" fill="#FFFFFF" stroke-linecap="round"></line>
                    <g id="Group-7" transform="translate(30.000000, 58.000000)">
                        <rect id="Rectangle" fill="#FFFFFF" x="6.93" y="26.565" width="26.565" height="21.945"></rect>
                        <g id="Group-30" fill="#44B244">
                            <path d="M30.2095945,31.8123188 L30.2095945,36.8489493 C30.2095945,42.4037913 25.6911756,46.9217909 20.1367529,46.9217909 C14.5819109,46.9217909 10.063492,42.4037913 10.063492,36.8489493 L10.063492,31.8123188 C9.13607784,31.8123188 8.38475496,31.060996 8.38475496,30.1335818 C8.38475496,29.2061676 9.13607784,28.4548447 10.063492,28.4548447 L13.4213854,28.4548447 C14.3483803,28.4548447 15.1001225,29.2061676 15.1001225,30.1335818 C15.1001225,31.060996 14.3483803,31.8123188 13.4213854,31.8123188 L13.4213854,36.8489493 C13.4213854,40.5527363 16.4338044,43.5643168 20.1367529,43.5643168 C23.8397014,43.5643168 26.8517011,40.5527363 26.8517011,36.8489493 L26.8517011,31.8123188 C25.9247062,31.8123188 25.1729641,31.060996 25.1729641,30.1335818 C25.1729641,29.2061676 25.9247062,28.4548447 26.8517011,28.4548447 L30.2095945,28.4548447 C31.1365894,28.4548447 31.8883316,29.2061676 31.8883316,30.1335818 C31.8883316,31.060996 31.1365894,31.8123188 30.2095945,31.8123188 L30.2095945,31.8123188 Z M0.0195796755,23.4182143 C0.0195796755,23.481104 -0.0055762245,23.5406397 0.0011320155,23.6035294 L2.86010005,49.3417885 C3.23827708,52.7470588 6.10772674,55.3163147 9.53437959,55.3163147 L30.7382877,55.3163147 C34.1661983,55.3163147 37.0343902,52.7470588 37.4117287,49.3417885 L40.2719545,23.6035294 C40.279082,23.5406397 40.2535069,23.481104 40.2535069,23.4182143 L0.0195796755,23.4182143 Z" id="Fill-25"></path>
                            <path d="M13.6308083,10.7659705 L7.05002483,13.4698105 C6.66849368,13.6266156 6.23245808,13.4446546 6.0752337,13.0631235 L5.98886511,12.8522332 C5.83206,12.4702827 6.01402101,12.0338279 6.39555216,11.877442 L12.9763356,9.17318279 C13.3578668,9.01679694 13.7943216,9.19917722 13.9511267,9.5802891 L14.0379146,9.79159866 C14.1943004,10.1727105 14.0123394,10.6091654 13.6308083,10.7659705 L13.6308083,10.7659705 Z M13.6308083,15.9304768 L7.05002483,18.634736 C6.66849368,18.7915412 6.23245808,18.6091609 6.0752337,18.228049 L5.98886511,18.0167394 C5.83206,17.6356275 6.01402101,17.1991727 6.39555216,17.0423676 L12.9763356,14.3385276 C13.3578668,14.1813032 13.7943216,14.3636835 13.9511267,14.7452146 L14.0379146,14.9561049 C14.1943004,15.3376361 14.0123394,15.7736717 13.6308083,15.9304768 L13.6308083,15.9304768 Z M16.691862,13.7440098 C16.123758,5.87775989 14.1599207,8.3853e-05 10.1349767,8.3853e-05 C6.30373313,8.3853e-05 4.17554399,5.87775989 3.58186475,13.7440098 L3.55712811,20.7905967 L16.8998175,20.7905967 L16.691862,13.7440098 Z" id="Fill-26"></path>
                            <polygon id="Fill-27" points="35.3957349 11.4939403 31.7007524 9.68019995 34.1945406 4.60038521 37.8895231 6.41370634"></polygon>
                            <path d="M37.9576117,6.44720561 L34.1263682,4.56680209 C33.3989434,4.20958831 33.0987496,3.32997034 33.4559634,2.60254556 L33.7494489,2.00425441 C34.1066627,1.27682963 34.9858614,0.976635891 35.7132862,1.33384967 L39.5445298,3.2142532 C40.2723738,3.57146698 40.5721483,4.45066568 40.2153538,5.17850972 L39.921449,5.77638161 C39.5646545,6.50422565 38.6850365,6.80441939 37.9576117,6.44720561" id="Fill-28"></path>
                            <path d="M36.5170172,20.8852248 L37.5203183,18.8413079 C39.2732653,15.2700086 37.7995488,10.9540947 34.2286688,9.20156703 C30.6573696,7.44862006 26.3414556,8.9227558 24.5889279,12.4932165 L20.4696493,20.8852248 L36.5170172,20.8852248 Z" id="Fill-29"></path>
                        </g>
                    </g>
                    <g id="Group-8" transform="translate(59.253906, 47.000000)" fill="#171717">
                        <circle id="Oval-Copy" cx="9.5" cy="3.5" r="3.5"></circle>
                        <rect id="Rectangle" x="0" y="2" width="11" height="3" rx="1.5"></rect>
                    </g>
                </g>
            </g>
        </g>
    </g>
</svg>