<?xml version="1.0" encoding="UTF-8"?>
<svg width="115px" height="105px" viewBox="0 0 115 105" version="1.1" xmlns="http://www.w3.org/2000/svg" xmlns:xlink="http://www.w3.org/1999/xlink">
    <!-- Generator: sketchtool 62 (101010) - https://sketch.com -->
    <title>B0EE2003-5F4F-4345-BCE2-03D937D5A13A</title>
    <desc>Created with sketchtool.</desc>
    <g id="Page-1" stroke="none" stroke-width="1" fill="none" fill-rule="evenodd">
        <g id="Mobile" transform="translate(-146.000000, -2813.000000)">
            <g id="Group-6" transform="translate(85.000000, 2815.000000)">
                <g id="Group-26" transform="translate(56.000000, 0.000000)">
                    <g id="Group-14">
                        <g id="Group-12">
                            <rect id="Rectangle-Copy-3" stroke="#171717" stroke-width="4" x="34.2539062" y="0" width="60" height="101" rx="6"></rect>
                            <line x1="15" y1="101" x2="117.988281" y2="101" id="Path-2-Copy" stroke="#171717" stroke-width="4" fill="#FFFFFF" stroke-linecap="round"></line>
                            <g id="Group-8-Copy" transform="translate(74.253906, 48.000000)" fill="#171717">
                                <circle id="Oval-Copy" cx="9.5" cy="3.5" r="3.5"></circle>
                                <rect id="Rectangle" x="0" y="2" width="11" height="3" rx="1.5"></rect>
                            </g>
                            <g id="Group-9" transform="translate(29.500000, 65.000000) rotate(-14.000000) translate(-29.500000, -65.000000) translate(6.000000, 41.000000)">
                                <path d="M20.4204102,10 C20.8927655,10.4025065 22.0084881,11.0691732 23.7675781,12 C25.1273943,10.5623559 26.0716778,9.84353383 26.6004286,9.84353383 C27.3935547,9.84353383 33.1330566,8.90429688 33.1330566,8.5 C33.1330566,8.23046875 34.4503581,7.2985026 37.0849609,5.70410156 L36.2497559,2.71582031 L34.3626401,1.48608398 L30.1989746,1.13012695 L26.1730957,1.81518555 L21.1289431,4.5090332 L20.074707,8.5 C19.8328205,9.09749349 19.9480549,9.59749349 20.4204102,10 Z" id="Path-3" fill="#FFFFFF"></path>
                                <g id="Group" transform="translate(0.545860, 0.698670)" fill="#44B244">
                                    <path d="M8.22017399,29.6331119 L17.7308629,39.7619078 C14.9456279,42.2975234 10.5438028,42.2555636 7.81207107,39.6360284 C5.03587004,36.9738504 5.03587004,32.657607 7.81207107,29.9954289 C7.94431567,29.8686158 8.08047428,29.7478435 8.22017399,29.6331119 Z" id="Combined-Shape" transform="translate(11.729888, 35.633293) rotate(-1.000000) translate(-11.729888, -35.633293) "></path>
                                    <path d="M0.9,18.18 C-1.8,15.48 2.34,11.34 5.04,14.04 C7.38,16.38 15.66,8.46 18.36,5.76 C25.02,-0.9 32.76,-0.72 38.16,2.7 C39.24,0 42.66,-0.72 44.82,1.26 C46.8,3.42 46.08,6.84 43.38,7.92 C46.98,13.5 46.98,21.24 40.32,27.72 C37.62,30.6 29.7,38.7 32.04,41.04 C34.92,43.74 30.6,48.06 27.9,45.18 L0.9,18.18 Z M21.6,10.44 C20.34,11.7 18.36,9.72 19.44,8.46 C22.32,5.4 27,2.52 31.32,3.6 C33.12,4.14 32.4,6.84 30.6,6.3 C27.54,5.4 23.58,8.28 21.6,10.44 Z" id="Shape"></path>
                                </g>
                            </g>
                            <path d="M54.059715,64.5149287 C54.3154353,63.4920476 55.3164561,62.8519147 56.338935,63.0288355 L56.4850713,63.059715 L64.4850713,65.059715 C65.5566611,65.3276125 66.2081825,66.4134814 65.940285,67.4850713 C65.6845647,68.5079524 64.6835439,69.1480853 63.661065,68.9711645 L63.5149287,68.940285 L55.5149287,66.940285 C54.4433389,66.6723875 53.7918175,65.5865186 54.059715,64.5149287 Z" id="Path-4" fill="#44B244" fill-rule="nonzero"></path>
                            <path d="M65.1055728,45.2111456 C66.0935298,44.7171671 67.2948759,45.1176158 67.7888544,46.1055728 C68.2593101,47.0464842 67.918494,48.1809458 67.0315341,48.7135734 L66.8944272,48.7888544 L56.8944272,53.7888544 C55.9064702,54.2828329 54.7051241,53.8823842 54.2111456,52.8944272 C53.7406899,51.9535158 54.081506,50.8190542 54.9684659,50.2864266 L55.1055728,50.2111456 L65.1055728,45.2111456 Z" id="Path-4-Copy" fill="#44B244" fill-rule="nonzero"></path>
                            <path d="M19.3675445,25.1026334 C20.3655317,24.769971 21.4403928,25.2677988 21.8422321,26.2211692 L21.8973666,26.3675445 L24.8973666,35.3675445 C25.2466621,36.4154311 24.6803422,37.5480711 23.6324555,37.8973666 C22.6344683,38.230029 21.5596072,37.7322012 21.1577679,36.7788308 L21.1026334,36.6324555 L18.1026334,27.6324555 C17.7533379,26.5845689 18.3196578,25.4519289 19.3675445,25.1026334 Z" id="Path-4-Copy-2" fill="#44B244" fill-rule="nonzero"></path>
                        </g>
                    </g>
                </g>
            </g>
        </g>
    </g>
</svg>