<?xml version="1.0" encoding="utf-8"?>
<!-- Generator: Adobe Illustrator 19.2.1, SVG Export Plug-In . SVG Version: 6.00 Build 0)  -->
<svg version="1.1" id="layer" xmlns="http://www.w3.org/2000/svg" xmlns:xlink="http://www.w3.org/1999/xlink" x="0px" y="0px"
	 viewBox="0 0 652 652" style="enable-background:new 0 0 652 652;" xml:space="preserve">
<style type="text/css">
	.st0{fill:#A1C517;}
	.st1{fill:#05171D;}
</style>
<path class="st0" d="M616.1,315.4c-2.1,0-3.9-1.7-3.9-3.9c0-2.1,1.7-3.9,3.9-3.9c2.1,0,3.9,1.7,3.9,3.9
	C620,313.7,618.3,315.4,616.1,315.4L616.1,315.4"/>
<path class="st0" d="M493.6,315.4c-2.1,0-3.9-1.7-3.9-3.9c0-2.1,1.7-3.9,3.9-3.9c2.1,0,3.9,1.7,3.9,3.9l0,0
	C497.5,313.7,495.8,315.4,493.6,315.4L493.6,315.4"/>
<path class="st0" d="M601.3,316c-2.4,0-4.4-2-4.4-4.4c0-2.4,2-4.4,4.4-4.4c2.4,0,4.4,2,4.4,4.4l0,0l0,0
	C605.7,314,603.7,316,601.3,316"/>
<path class="st0" d="M508.6,316c-2.4,0-4.4-2-4.4-4.4c0-2.4,2-4.4,4.4-4.4s4.4,2,4.4,4.4l0,0l0,0C513,314,511,316,508.6,316"/>
<path class="st0" d="M585.8,317.1c-3,0-5.5-2.5-5.5-5.5c0-3,2.5-5.5,5.5-5.5s5.5,2.5,5.5,5.5l0,0
	C591.3,314.6,588.8,317.1,585.8,317.1L585.8,317.1"/>
<path class="st0" d="M524,317.1c-3,0-5.5-2.5-5.5-5.5c0-3,2.5-5.5,5.5-5.5c3,0,5.5,2.5,5.5,5.5l0,0C529.5,314.6,527,317.1,524,317.1
	L524,317.1"/>
<path class="st0" d="M616.1,300c-2.1,0-3.9-1.7-3.9-3.9c0-2.1,1.7-3.9,3.9-3.9c2.1,0,3.9,1.7,3.9,3.9C620,298.3,618.3,300,616.1,300
	L616.1,300"/>
<path class="st0" d="M493.6,300c-2.1,0-3.9-1.7-3.9-3.9s1.7-3.9,3.9-3.9c2.1,0,3.9,1.7,3.9,3.9c0,0,0,0,0,0
	C497.5,298.3,495.8,300,493.6,300L493.6,300"/>
<path class="st0" d="M601.3,300.5c-2.4,0-4.4-2-4.4-4.4c0-2.4,2-4.4,4.4-4.4c2.4,0,4.4,2,4.4,4.4l0,0
	C605.7,298.6,603.7,300.5,601.3,300.5"/>
<path class="st0" d="M508.6,300.5c-2.4,0-4.4-2-4.4-4.4c0-2.4,2-4.4,4.4-4.4c2.4,0,4.4,2,4.4,4.4l0,0
	C513,298.6,511,300.5,508.6,300.5"/>
<path class="st0" d="M585.8,301.6c-3,0-5.5-2.5-5.5-5.5c0-3,2.5-5.5,5.5-5.5c3,0,5.5,2.5,5.5,5.5c0,0,0,0,0,0l0,0
	C591.3,299.2,588.8,301.6,585.8,301.6L585.8,301.6"/>
<path class="st0" d="M524,301.6c-3,0-5.5-2.5-5.5-5.5c0-3,2.5-5.5,5.5-5.5c3,0,5.5,2.5,5.5,5.5l0,0C529.5,299.2,527,301.6,524,301.6
	L524,301.6"/>
<path class="st0" d="M616.1,330.8c-2.1,0-3.9-1.7-3.9-3.9c0-2.1,1.7-3.9,3.9-3.9c2.1,0,3.9,1.7,3.9,3.9c0,0,0,0,0,0
	C620,329.1,618.3,330.8,616.1,330.8L616.1,330.8"/>
<path class="st0" d="M493.6,330.8c-2.1,0-3.9-1.7-3.9-3.9s1.7-3.9,3.9-3.9c2.1,0,3.9,1.7,3.9,3.9l0,0
	C497.5,329.1,495.8,330.8,493.6,330.8L493.6,330.8"/>
<path class="st0" d="M601.3,331.4c-2.4,0-4.4-2-4.4-4.4c0-2.4,2-4.4,4.4-4.4c2.4,0,4.4,2,4.4,4.4c0,0,0,0,0,0l0,0
	C605.7,329.5,603.7,331.4,601.3,331.4"/>
<path class="st0" d="M508.6,331.4c-2.4,0-4.4-2-4.4-4.4c0-2.4,2-4.4,4.4-4.4s4.4,2,4.4,4.4c0,0,0,0,0,0l0,0
	C513,329.5,511,331.4,508.6,331.4"/>
<path class="st0" d="M585.8,332.5c-3,0-5.5-2.5-5.5-5.5c0-3,2.5-5.5,5.5-5.5c3,0,5.5,2.5,5.5,5.5l0,0
	C591.3,330.1,588.8,332.5,585.8,332.5L585.8,332.5"/>
<path class="st0" d="M524,332.5c-3,0-5.5-2.5-5.5-5.5c0-3,2.5-5.5,5.5-5.5c3,0,5.5,2.5,5.5,5.5l0,0C529.5,330.1,527,332.5,524,332.5
	L524,332.5"/>
<path class="st0" d="M551,372.8c0-2.1,1.7-3.9,3.9-3.9s3.9,1.7,3.9,3.9s-1.7,3.9-3.9,3.9l0,0C552.8,376.7,551,375,551,372.8
	L551,372.8"/>
<path class="st0" d="M551,250.4c0-2.1,1.7-3.9,3.9-3.9s3.9,1.7,3.9,3.9c0,2.1-1.7,3.9-3.9,3.9l0,0C552.8,254.3,551,252.5,551,250.4
	L551,250.4"/>
<path class="st0" d="M550.5,357.9c0-2.4,2-4.4,4.4-4.4c2.4,0,4.4,2,4.4,4.4c0,2.4-2,4.4-4.4,4.4l0,0l0,0
	C552.5,362.3,550.5,360.3,550.5,357.9"/>
<path class="st0" d="M550.5,265.2c0-2.4,2-4.4,4.4-4.4c2.4,0,4.4,2,4.4,4.4c0,2.4-2,4.4-4.4,4.4l0,0l0,0
	C552.5,269.6,550.5,267.6,550.5,265.2"/>
<path class="st0" d="M549.4,342.5c0-3,2.5-5.5,5.5-5.5s5.5,2.5,5.5,5.5c0,3-2.5,5.5-5.5,5.5l0,0C551.8,348,549.4,345.5,549.4,342.5
	L549.4,342.5"/>
<path class="st0" d="M549.4,280.7c0-3,2.5-5.5,5.5-5.5c3,0,5.5,2.5,5.5,5.5c0,3-2.5,5.5-5.5,5.5l0,0
	C551.9,286.2,549.4,283.8,549.4,280.7C549.4,280.7,549.4,280.7,549.4,280.7"/>
<path class="st0" d="M535.6,372.8c0-2.1,1.7-3.9,3.9-3.9c2.1,0,3.9,1.7,3.9,3.9c0,2.1-1.7,3.9-3.9,3.9
	C537.3,376.7,535.6,375,535.6,372.8L535.6,372.8"/>
<path class="st0" d="M535.6,250.4c0-2.1,1.7-3.9,3.9-3.9c2.1,0,3.9,1.7,3.9,3.9s-1.7,3.9-3.9,3.9c0,0,0,0,0,0
	C537.3,254.2,535.6,252.5,535.6,250.4L535.6,250.4"/>
<path class="st0" d="M535,357.9c0-2.4,2-4.4,4.4-4.4c2.4,0,4.4,2,4.4,4.4c0,2.4-2,4.4-4.4,4.4c0,0,0,0,0,0l0,0
	C537,362.3,535,360.3,535,357.9"/>
<path class="st0" d="M535,265.2c0-2.4,2-4.4,4.4-4.4c2.4,0,4.4,2,4.4,4.4c0,2.4-2,4.4-4.4,4.4c0,0,0,0,0,0l0,0
	C537,269.6,535,267.6,535,265.2"/>
<path class="st0" d="M533.9,342.5c0-3,2.5-5.5,5.5-5.5s5.5,2.5,5.5,5.5c0,3-2.5,5.5-5.5,5.5c0,0,0,0,0,0l0,0
	C536.4,348,533.9,345.5,533.9,342.5L533.9,342.5"/>
<path class="st0" d="M533.9,280.7c0-3,2.5-5.5,5.5-5.5s5.5,2.5,5.5,5.5c0,3-2.5,5.5-5.5,5.5l0,0
	C536.4,286.2,533.9,283.7,533.9,280.7C533.9,280.7,533.9,280.7,533.9,280.7"/>
<path class="st0" d="M566.5,372.8c0-2.1,1.7-3.9,3.9-3.9c2.1,0,3.9,1.7,3.9,3.9s-1.7,3.9-3.9,3.9l0,0
	C568.2,376.7,566.5,375,566.5,372.8L566.5,372.8"/>
<path class="st0" d="M566.5,250.4c0-2.1,1.7-3.9,3.9-3.9c2.1,0,3.9,1.7,3.9,3.9c0,2.1-1.7,3.9-3.9,3.9l0,0
	C568.2,254.3,566.5,252.5,566.5,250.4L566.5,250.4"/>
<path class="st0" d="M565.9,357.9c0-2.4,2-4.4,4.4-4.4c2.4,0,4.4,2,4.4,4.4c0,2.4-2,4.4-4.4,4.4l0,0l0,0
	C567.9,362.3,565.9,360.3,565.9,357.9"/>
<path class="st0" d="M565.9,265.2c0-2.4,2-4.4,4.4-4.4c2.4,0,4.4,2,4.4,4.4c0,2.4-2,4.4-4.4,4.4l0,0l0,0
	C567.9,269.6,565.9,267.6,565.9,265.2"/>
<path class="st0" d="M564.8,342.5c0-3,2.5-5.5,5.5-5.5s5.5,2.5,5.5,5.5c0,3-2.5,5.5-5.5,5.5l0,0C567.3,348,564.8,345.5,564.8,342.5
	L564.8,342.5"/>
<path class="st0" d="M564.8,280.7c0-3,2.5-5.5,5.5-5.5s5.5,2.5,5.5,5.5c0,3-2.5,5.5-5.5,5.5l0,0
	C567.3,286.2,564.8,283.7,564.8,280.7C564.8,280.7,564.8,280.7,564.8,280.7"/>
<path class="st0" d="M570.3,318.2c-3.7,0-6.6-3-6.6-6.6s3-6.6,6.6-6.6s6.6,3,6.6,6.6l0,0C577,315.2,574,318.2,570.3,318.2
	L570.3,318.2"/>
<path class="st0" d="M554.9,318.2c-3.7,0-6.6-3-6.6-6.6c0-3.7,3-6.6,6.6-6.6s6.6,3,6.6,6.6l0,0C561.5,315.2,558.6,318.2,554.9,318.2
	L554.9,318.2"/>
<path class="st0" d="M539.4,318.2c-3.7,0-6.6-3-6.6-6.6c0-3.7,3-6.6,6.6-6.6s6.6,3,6.6,6.6l0,0C546.1,315.2,543.1,318.2,539.4,318.2
	L539.4,318.2"/>
<path class="st0" d="M548.3,327c0-3.7,3-6.6,6.6-6.6s6.6,3,6.6,6.6c0,3.7-3,6.6-6.6,6.6l0,0C551.2,333.6,548.3,330.7,548.3,327
	C548.3,327,548.3,327,548.3,327"/>
<path class="st0" d="M548.3,296.1c0-3.7,3-6.6,6.6-6.6s6.6,3,6.6,6.6c0,3.7-3,6.6-6.6,6.6l0,0C551.2,302.7,548.3,299.8,548.3,296.1
	L548.3,296.1"/>
<path class="st0" d="M532.9,327c0-3.7,3-6.6,6.6-6.6c3.7,0,6.6,3,6.6,6.6c0,3.7-3,6.6-6.6,6.6l0,0
	C535.8,333.6,532.9,330.7,532.9,327C532.9,327,532.9,327,532.9,327"/>
<path class="st0" d="M532.9,296.1c0-3.7,3-6.6,6.6-6.6c3.7,0,6.6,3,6.6,6.6c0,3.7-3,6.6-6.6,6.6l0,0
	C535.8,302.7,532.9,299.8,532.9,296.1L532.9,296.1"/>
<path class="st0" d="M563.7,327c0-3.7,3-6.6,6.6-6.6c3.7,0,6.6,3,6.6,6.6c0,3.7-3,6.6-6.6,6.6l0,0
	C566.7,333.6,563.7,330.7,563.7,327C563.7,327,563.7,327,563.7,327"/>
<path class="st0" d="M563.7,296.1c0-3.7,3-6.6,6.6-6.6c3.7,0,6.6,3,6.6,6.6c0,3.7-3,6.6-6.6,6.6l0,0
	C566.7,302.7,563.7,299.8,563.7,296.1L563.7,296.1"/>
<path class="st1" d="M69.2,377.8l-2.7-36.2c-0.2-3.7-0.4-8.1-0.4-9.9c-0.4,1.9-1.2,5.4-2.3,9.1l-10.6,36.9h-8.3l-9.7-35.4
	c-1.1-3.9-2.2-8.9-2.5-10.8c0,1.9-0.3,7.2-0.6,10.9l-2.5,35.3H20l5.3-58.4h12.9l9,33.1c1.4,4.9,1.8,7.9,2.2,9.7
	c0.5-3.2,1.2-6.4,2.1-9.5l9.2-33.3h12.9l5.2,58.4H69.2z"/>
<path class="st1" d="M118.9,379.1c-1.8-1.3-3.1-3.2-3.7-5.3c-3.1,3.5-7.5,5.4-12.1,5.2c-4.8,0-8.5-1.7-10.6-4.2
	c-1.7-2-2.4-4.8-2.4-10.1v-29.5l9.1-1.7v29.1c0,5.3,0.8,9.2,6.2,9.2c3.6-0.3,6.7-2.4,8.4-5.6v-31l8.9-1.7v32.7
	c0,6.4,2.6,8.5,2.6,8.5L118.9,379.1z"/>
<path class="st1" d="M145.1,378.6c-9.4,0-9.4-8.4-9.4-12.1v-36.4c0.1-4.2-0.2-8.4-0.9-12.5l9.6-2.2c0.7,2.6,0.8,6.2,0.8,11.7v36.2
	c0,5.8,0.3,6.7,0.9,7.7c0.8,0.9,2,1.1,3,0.7l1.5,5.8C148.9,378.3,147,378.6,145.1,378.6"/>
<path class="st1" d="M168.7,335H179l-2.5,6.4h-7.8v24c0,5.3,1.2,6.8,5.2,6.8c1.4,0,2.7-0.3,4-0.8l1.2,5.6c-2.6,1.2-5.5,1.9-8.4,1.8
	c-8.3,0-11.2-4.9-11.2-11v-26.4h-4.7V335h4.6c-0.1-3.5,0.1-7,0.4-10.6l9.5-2.3C168.9,326.4,168.7,330.7,168.7,335"/>
<path class="st1" d="M187.3,377.8v-42.5l9.4-1.7v44.2L187.3,377.8z M186.1,322.5c0-3.4,2.8-6.1,6.2-6c3.4,0,6.1,2.8,6,6.2
	c0,3.4-2.8,6.1-6.2,6h-0.1C188.7,328.7,186.1,326,186.1,322.5C186.1,322.6,186.1,322.6,186.1,322.5L186.1,322.5"/>
<path class="st0" d="M226.5,369.7c5.6,0,7.8-3.8,7.8-13.6c0.1-3.2-0.2-6.4-1.1-9.5c-0.7-2.3-3-3.8-5.4-3.6c-2.8,0-5.6,1.2-7.5,3.3
	v21.1C222,368.7,224.2,369.6,226.5,369.7 M218.6,333.7c0.4,1.3,0.7,2.7,0.8,4.1c1.9-2.4,6.2-4.1,10.6-4.1c3,0,6,0.9,8.5,2.6
	c4.6,3.1,8,8.7,8,18.6c0,9.3-1.5,14-6,18.8c-3,3.2-7.2,5-11.6,4.9c-3.2,0-6.3-0.8-9.1-2.3c0.1,1.2,0.2,2.4,0.2,3.5v13.5l-10.9,2.9
	v-49.9c0.1-3.6-0.1-7.3-0.7-10.9L218.6,333.7z"/>
<path class="st0" d="M265.7,315.2c0.6,3.5,0.8,7,0.8,10.6v8.7c0,1.4-0.2,3.1-0.2,3.6c3.4-3,7.7-4.7,12.2-4.7c5.5,0,9.9,2.4,11.2,6.2
	c0.9,2.6,1.3,5.3,1.1,8v30.3h-11.1v-29.1c0-4.3-1.2-5.9-4.3-5.9c-3.3,0.3-6.5,1.7-8.9,4v31H255v-50c0.1-3.3-0.2-6.7-0.8-9.9
	L265.7,315.2z"/>
<path class="st0" d="M322,358.8c-7.8,0-10.6,1.5-10.6,6.6c0,3.4,2.1,5.7,5,5.7c2.3-0.1,4.4-1.1,5.9-2.9l0.2-9.3L322,358.8z
	 M307.3,336.1c3.7-1.6,7.7-2.5,11.8-2.5c7.2,0,12.2,2.7,13.9,7.5c0.6,1.8,0.8,3.1,0.8,7.8l-0.2,14.4v0.8c0,4.6,0.8,6.4,4.1,8.9
	l-5.9,7c-2.6-1-4.7-2.9-6.1-5.2c-0.8,0.8-1.7,1.6-2.6,2.3c-2.6,1.7-5.6,2.5-8.7,2.4c-9.6,0-14.9-4.9-14.9-13.5
	c0-10.1,7-14.9,20.8-14.9c0.8,0,1.6,0,2.5,0.1v-1.7c0-4.8-0.9-6.4-5.1-6.4c-3.6,0-7.8,1.8-12.5,4.9l-4.8-8.1
	C302.6,338.2,305,337.1,307.3,336.1"/>
<path class="st0" d="M354.2,333.5c1.1,1.9,1.7,4,1.8,6.2c1.7-2.3,3.9-4.2,6.4-5.5c1.2-0.5,2.4-0.7,3.7-0.7c1.5-0.1,2.9,0.3,4.2,0.9
	l-3.1,9.9c-1-0.6-2.1-0.9-3.3-0.8c-2.7,0.1-5.3,1.4-6.9,3.6v30.6h-11.3v-28.9c0.2-4.3-0.4-8.6-1.6-12.7L354.2,333.5z"/>
<path class="st0" d="M384.1,333.7c0.8,1.3,1.3,2.8,1.5,4.3c2.8-2.8,6.6-4.4,10.6-4.3c3.3-0.1,6.5,1.2,8.8,3.5
	c0.6,0.6,1.2,1.4,1.7,2.1c4-4.1,7.5-5.7,12.2-5.7c3.1-0.1,6.1,0.8,8.5,2.7c2.5,2.1,3.2,4.6,3.2,10.6v30.8h-11v-28.5
	c0-5.2-0.6-6.2-3.5-6.2c-2.8,0.3-5.5,1.6-7.5,3.6v31.1h-10.7v-28.2c0-5.4-0.8-6.7-3.9-6.7c-2.8,0.2-5.4,1.4-7.4,3.3v31.6h-11.1
	v-30.2c0-6.2-0.4-8.9-1.6-11.1L384.1,333.7z"/>
<path class="st0" d="M462.1,358.8c-7.8,0-10.6,1.5-10.6,6.6c0,3.4,2.1,5.7,5,5.7c2.3-0.1,4.4-1.1,5.9-2.9l0.2-9.3L462.1,358.8z
	 M447.5,336.1c3.7-1.6,7.7-2.5,11.8-2.5c7.2,0,12.2,2.7,13.9,7.5c0.6,1.8,0.8,3.1,0.8,7.8l-0.3,14.4v0.8c0,4.6,0.8,6.4,4.1,8.9
	l-6,6.9c-2.6-1-4.7-2.9-6.1-5.2c-0.8,0.8-1.7,1.6-2.6,2.3c-2.6,1.7-5.6,2.5-8.7,2.4c-9.6,0-14.9-4.9-14.9-13.5
	c0-10.1,7-14.9,20.8-14.9c0.8,0,1.6,0,2.5,0.1v-1.7c0-4.8-0.9-6.4-5.1-6.4c-3.6,0-7.8,1.8-12.5,4.9l-4.8-8.1
	C442.6,338.2,445,337,447.5,336.1"/>
</svg>
